<svg xmlns="http://www.w3.org/2000/svg" viewBox="0 0 1200 1200" role="img" aria-label="Project Misfits Drug Plug Package artwork">
<defs>
  <linearGradient id="bg" x1="0" y1="0" x2="1" y2="1"><stop stop-color="#07050b"/><stop offset=".48" stop-color="#180521"/><stop offset="1" stop-color="#050407"/></linearGradient>
  <radialGradient id="glow"><stop stop-color="#d32cff" stop-opacity=".92"/><stop offset=".45" stop-color="#7c10ad" stop-opacity=".34"/><stop offset="1" stop-color="#12031a" stop-opacity="0"/></radialGradient>
  <linearGradient id="chrome" x1="0" y1="0" x2="0" y2="1"><stop stop-color="#fff"/><stop offset=".22" stop-color="#a8a8ad"/><stop offset=".45" stop-color="#f2f2f4"/><stop offset=".7" stop-color="#56565c"/><stop offset="1" stop-color="#d8d8db"/></linearGradient>
  <linearGradient id="gold" x1="0" y1="0" x2="1" y2="1"><stop stop-color="#fff1a6"/><stop offset=".22" stop-color="#ffd64d"/><stop offset=".52" stop-color="#9f6200"/><stop offset=".75" stop-color="#ffe27a"/><stop offset="1" stop-color="#6f3d00"/></linearGradient>
  <linearGradient id="purple" x1="0" y1="0" x2="0" y2="1"><stop stop-color="#f241ff"/><stop offset=".45" stop-color="#a819db"/><stop offset="1" stop-color="#5c077f"/></linearGradient>
  <filter id="neon" x="-40%" y="-40%" width="180%" height="180%"><feGaussianBlur stdDeviation="15" result="b"/><feMerge><feMergeNode in="b"/><feMergeNode in="SourceGraphic"/></feMerge></filter>
  <filter id="shadow" x="-30%" y="-30%" width="160%" height="160%"><feDropShadow dx="0" dy="18" stdDeviation="20" flood-color="#000" flood-opacity=".9"/></filter>
</defs>
<rect width="1200" height="1200" fill="url(#bg)"/>
<circle cx="600" cy="465" r="470" fill="url(#glow)"/>
<g opacity=".28" fill="#9d28c7">
  <rect x="0" y="555" width="95" height="260"/><rect x="115" y="470" width="120" height="345"/><rect x="255" y="590" width="88" height="225"/>
  <rect x="860" y="505" width="120" height="310"/><rect x="1000" y="430" width="90" height="385"/><rect x="1100" y="570" width="100" height="245"/>
</g>
<path d="M0 820H1200V1200H0Z" fill="#050407"/>
<path d="M0 842 C220 792 350 906 590 850 C820 797 975 882 1200 825 V1200H0Z" fill="#0c0710"/>
<g stroke="#8d19b0" opacity=".42"><path d="M0 940H1200"/><path d="M0 1020H1200"/><path d="M0 1100H1200"/><path d="M130 820L20 1200"/><path d="M330 820L260 1200"/><path d="M530 820L510 1200"/><path d="M730 820L755 1200"/><path d="M930 820L1000 1200"/><path d="M1100 820L1190 1200"/></g>

<g filter="url(#neon)" opacity=".75">
  <ellipse cx="600" cy="530" rx="330" ry="250" fill="none" stroke="#ca31ff" stroke-width="16"/>
  <ellipse cx="600" cy="530" rx="365" ry="285" fill="none" stroke="#6a0e8e" stroke-width="7"/>
</g>

<g transform="translate(600 220)" filter="url(#shadow)">
  <path d="M-165 65 L-135 -20 L-55 55 L0 -55 L55 55 L135 -20 L165 65 L150 120 H-150Z" fill="url(#gold)" stroke="#fff0aa" stroke-width="7"/>
  <path d="M-118 67 L-98 22 L-50 72 L0 -5 L50 72 L98 22 L118 67" fill="none" stroke="#8c4f00" stroke-width="10"/>
  <circle cx="-132" cy="-14" r="13" fill="#e72fff"/><circle cx="0" cy="-50" r="13" fill="#e72fff"/><circle cx="132" cy="-14" r="13" fill="#e72fff"/>
</g>

<g filter="url(#shadow)" text-anchor="middle" font-family="Arial Black, Impact, sans-serif" font-weight="900">
  <text x="600" y="505" font-size="194" fill="url(#chrome)" stroke="#120913" stroke-width="20" paint-order="stroke">DRUG</text>
  <text x="600" y="680" font-size="194" fill="url(#gold)" stroke="#120913" stroke-width="20" paint-order="stroke">PLUG</text>
</g>

<g opacity=".97">
  <g transform="translate(125 790) rotate(-10)" filter="url(#shadow)">
    <rect x="0" y="0" rx="26" width="230" height="300" fill="#100b16" stroke="#b428e5" stroke-width="6"/>
    <rect x="25" y="45" rx="12" width="180" height="165" fill="#221027"/>
    <path d="M45 170 C90 110 145 120 185 72" fill="none" stroke="#d928ff" stroke-width="18" filter="url(#neon)"/>
    <text x="115" y="258" text-anchor="middle" font-family="Arial Black" font-size="38" fill="#e6c15b">PMv2</text>
  </g>
  <g transform="translate(900 815) rotate(9)" filter="url(#shadow)">
    <rect x="0" y="0" rx="22" width="185" height="250" fill="#100b16" stroke="#d4a82d" stroke-width="6"/>
    <path d="M40 70H145M40 110H145M40 150H145" stroke="#ba29e4" stroke-width="14" stroke-linecap="round"/>
    <text x="92" y="215" text-anchor="middle" font-family="Arial Black" font-size="32" fill="#f1db87">M</text>
  </g>
</g>

<g fill="#bd29e9" opacity=".95" filter="url(#neon)">
  <circle cx="385" cy="845" r="10"/><circle cx="815" cy="850" r="11"/><circle cx="470" cy="775" r="7"/><circle cx="735" cy="765" r="9"/>
</g>
<text x="600" y="772" text-anchor="middle" font-family="Arial, sans-serif" font-size="28" letter-spacing="12" fill="#d6acdF">PROJECT MISFITS v2</text>
<text x="600" y="1110" text-anchor="middle" font-family="Arial Black, Arial, sans-serif" font-size="31" letter-spacing="8" fill="#8f8494">CRIMINAL ROLEPLAY PACKAGE</text>
<rect x="375" y="1144" width="450" height="3" fill="url(#purple)"/>
</svg>